<svg width="217" height="128" viewBox="0 0 217 128" fill="none" xmlns="http://www.w3.org/2000/svg">
<path d="M84.208 68.3993C84.2917 68.2329 84.43 67.9563 84.4846 67.8189L87.8571 59.6355L91.1742 67.9008C91.2297 68.0391 91.3398 68.2602 91.4235 68.4531L91.0094 68.5368C90.0688 68.786 89.0189 68.9508 87.9408 68.9508C86.8619 68.9508 85.8674 68.8133 84.8166 68.5368C84.6229 68.4821 84.3463 68.3993 84.208 68.3993ZM49.9029 55.9317C53.6622 55.9317 56.316 56.7059 57.9745 58.1707C59.9651 59.9129 60.9604 62.2065 60.9604 65.0814C60.9604 67.8197 59.9933 70.0852 58.0847 71.8547C56.4261 73.4304 53.7177 74.2592 49.9021 74.2592H48.6866V55.9317H49.9029ZM166.007 58.2808C167.887 60.105 168.799 62.3994 168.799 65.0806C168.799 67.7344 167.859 70.0015 166.007 71.8812C164.156 73.7334 161.917 74.6733 159.29 74.6733C154.011 74.6733 149.808 70.3336 149.808 65.0806C149.808 62.4276 150.749 60.1331 152.601 58.2527C154.425 56.4012 156.691 55.4887 159.29 55.4887C161.889 55.4887 164.127 56.4285 166.007 58.2808ZM121.473 59.8847L124.817 57.009C121.943 53.167 118.1 51.26 113.567 51.26C105.854 51.26 99.6333 57.4238 99.6333 65.1369C99.6333 72.6835 105.826 78.9036 113.374 78.9036C115.281 78.9036 117.105 78.4888 118.874 77.6873C120.588 76.9122 122.081 75.835 123.297 74.4257C124.458 73.1273 125.205 71.6336 125.647 70.0024C126.008 68.6469 126.228 66.9892 126.118 64.9986L126.061 64.1963H114.01V68.4258H121.417C121.224 70.0843 120.366 71.5218 118.874 72.7108C117.244 74.0382 115.391 74.6733 113.318 74.6733C110.913 74.6733 108.757 73.678 106.766 71.7164C104.97 69.8922 104.057 67.7071 104.057 65.165C104.057 62.4831 104.997 60.1613 106.932 58.2254C108.757 56.3739 110.968 55.4887 113.512 55.4887C116.773 55.4887 119.344 56.9817 121.473 59.8847ZM93.1383 72.6289L95.5992 78.4888H100.465L89.0462 51.6194H86.8354L75.1138 78.4888H79.952L82.523 72.5171C82.5768 72.3523 82.6058 72.2405 82.6331 72.1304C82.7433 72.185 82.9097 72.2405 83.1018 72.3233C84.5401 72.8764 86.2541 73.1803 87.9408 73.1803C89.5993 73.1803 91.2305 72.8499 92.1977 72.5163C92.6961 72.3515 92.8617 72.2687 92.9992 72.185C93.0273 72.296 93.1093 72.5461 93.1383 72.6289ZM49.7647 78.4888C54.6848 78.4888 58.4722 77.3834 61.0159 75.0889C63.9181 72.4906 65.3837 69.1735 65.3837 65.1096C65.3837 60.88 63.8908 57.4801 60.9049 54.9364C58.3894 52.7803 54.6575 51.7013 49.8201 51.7013H44.0977V78.4888H49.7647ZM73.3717 51.7013H68.9765V78.4888H73.3717V51.7013ZM133.388 65.9931H142.758V61.7925H133.388V55.9317H143.588V51.7013H128.991V78.4888H143.615V74.2592H133.387L133.388 65.9931ZM149.475 55.3223C146.74 58.0043 145.386 61.2949 145.386 65.1087C145.386 72.8201 151.605 78.9028 159.29 78.9028C167.002 78.9028 173.195 72.8491 173.195 65.1087C173.195 61.3213 171.813 58.0879 169.131 55.3505C166.421 52.6147 163.132 51.26 159.289 51.26C155.475 51.26 152.186 52.6147 149.475 55.3223Z" fill="#0E1623"/>
</svg>
